<svg width="64" height="64" viewBox="0 0 64 64" fill="none" xmlns="http://www.w3.org/2000/svg">
<path fill-rule="evenodd" clip-rule="evenodd" d="M9.27002 6.03873H0.780762V0.0387268H11.9253H14.5806L14.9031 2.6743L15.9282 11.0504H60.3499H63.7408L63.3275 14.4161L60.5414 37.1027L60.2179 39.737H57.5637H19.439L20.0198 44.4834H57.5637V50.4834H17.3646H14.7094L14.3868 47.8478L13.0717 37.1015L10.2952 14.4148L9.27002 6.03873ZM18.7046 33.737H54.9097L56.9589 17.0504H16.6625L18.7046 33.737ZM28.8242 58.4535C28.8242 61.215 26.5857 63.4535 23.8242 63.4535C21.0627 63.4535 18.8242 61.215 18.8242 58.4535C18.8242 55.6921 21.0627 53.4535 23.8242 53.4535C26.5857 53.4535 28.8242 55.6921 28.8242 58.4535ZM49.6948 63.4535C52.4563 63.4535 54.6948 61.215 54.6948 58.4535C54.6948 55.6921 52.4563 53.4535 49.6948 53.4535C46.9333 53.4535 44.6948 55.6921 44.6948 58.4535C44.6948 61.215 46.9333 63.4535 49.6948 63.4535Z" fill="#040F0F"/>
</svg>
