<svg width="116" height="63" viewBox="0 0 116 63" fill="none" xmlns="http://www.w3.org/2000/svg">
<path fill-rule="evenodd" clip-rule="evenodd" d="M72.4122 30.7114L74.1429 28.0166H98.1298L99.8728 30.7087C96.0927 29.9799 91.5182 29.6155 86.1496 29.6155C80.7742 29.6155 76.1951 29.9808 72.4122 30.7114ZM86.0877 9.41784L93.1188 20.2772H79.1134L86.0877 9.41784ZM115.559 33.0214H107.303C109.584 34.106 111.36 35.4533 112.631 37.0635C114.611 39.4975 115.601 42.5318 115.601 46.1666C115.601 49.8014 114.611 52.852 112.631 55.3184C110.684 57.7524 107.552 59.6022 103.236 60.8679C98.9199 62.1011 93.2243 62.7178 86.1496 62.7178C79.0747 62.7178 73.3792 62.1011 69.0629 60.8679C64.7466 59.6022 61.5987 57.7524 59.619 55.3184C57.6718 52.852 56.6982 49.8014 56.6982 46.1666C56.6982 42.5318 57.6718 39.4975 59.619 37.0635C60.9114 35.4533 62.7016 34.106 64.9898 33.0214H57.2715H56.7397H54.015C54.087 33.0987 54.1578 33.177 54.2274 33.2565C55.7064 34.9075 56.446 37.1606 56.446 40.0155C56.446 41.9074 56.102 43.4725 55.4141 44.7108C54.7261 45.9491 53.7802 46.9122 52.5763 47.6001C51.3724 48.2881 49.9965 48.7869 48.4486 49.0964C48.1524 49.1557 47.8536 49.2105 47.5524 49.2609C48.1792 49.3188 48.7532 49.3843 49.2741 49.4576C51.51 49.7672 53.0578 50.3347 53.9178 51.1603C54.8121 51.9514 55.2593 53.1037 55.2593 54.6172V61.6858H42.3603V56.1651C42.3603 55.1332 42.1539 54.3592 41.7411 53.8433C41.3628 53.2929 40.5028 52.9145 39.1613 52.7081C37.8542 52.5018 35.8248 52.3986 33.073 52.3986H12.899V61.6858H0V33.0214V28.6644V0H12.899V15.4103L36.1172 0H54.4853L29.7858 15.3486L56.8999 32.7825L78.8744 0H93.2181L115.559 33.0214ZM12.899 15.5504V28.6644H31.7986L12.899 15.5504ZM39.8837 43.782H12.899V38.9836H39.8837C40.9156 38.9836 41.7755 39.1556 42.4635 39.4996C43.1858 39.8092 43.547 40.4111 43.547 41.3054C43.547 42.2686 43.1858 42.9221 42.4635 43.2661C41.7755 43.6101 40.9156 43.782 39.8837 43.782ZM94.8146 52.8844C92.3806 53.2739 89.4922 53.4686 86.1496 53.4686C82.8069 53.4686 79.8698 53.2739 77.3385 52.8844C74.8396 52.4625 72.8762 51.7323 71.4482 50.6938C70.0527 49.6229 69.355 48.1138 69.355 46.1666C69.355 44.2194 70.0527 42.7266 71.4482 41.6881C72.8762 40.6171 74.8396 39.8869 77.3385 39.4975C79.8698 39.0756 82.8069 38.8646 86.1496 38.8646C89.4922 38.8646 92.3806 39.0756 94.8146 39.4975C97.2486 39.8869 99.1308 40.6171 100.461 41.6881C101.792 42.7266 102.457 44.2194 102.457 46.1666C102.457 48.1138 101.792 49.6229 100.461 50.6938C99.1308 51.7323 97.2486 52.4625 94.8146 52.8844Z" fill="#040F0F"/>
</svg>
